<?xml version="1.0" encoding="UTF-8" standalone="no"?>
<!DOCTYPE svg PUBLIC "-//W3C//DTD SVG 1.1//EN"
 "http://www.w3.org/Graphics/SVG/1.1/DTD/svg11.dtd">
<!-- Generated by graphviz version 2.43.0 (0)
 -->
<!-- Title: MedicineHealth Pages: 1 -->
<svg width="1475pt" height="1083pt"
 viewBox="0.00 0.00 1475.00 1083.00" xmlns="http://www.w3.org/2000/svg" xmlns:xlink="http://www.w3.org/1999/xlink">
<g id="graph0" class="graph" transform="scale(1 1) rotate(0) translate(4 1079)">
<title>MedicineHealth</title>
<polygon fill="white" stroke="transparent" points="-4,4 -4,-1079 1471,-1079 1471,4 -4,4"/>
<text text-anchor="middle" x="733.5" y="-1058.2" font-family="Noto Sans SC" font-size="16.00">医学与健康前沿 · 概念关系图（4层架构）</text>
<g id="clust1" class="cluster">
<title>cluster_molecular</title>
<path fill="#fef2f2" stroke="#dc2626" stroke-dasharray="5,2" d="M541,-216C541,-216 755,-216 755,-216 761,-216 767,-222 767,-228 767,-228 767,-1029 767,-1029 767,-1035 761,-1041 755,-1041 755,-1041 541,-1041 541,-1041 535,-1041 529,-1035 529,-1029 529,-1029 529,-228 529,-228 529,-222 535,-216 541,-216"/>
<text text-anchor="middle" x="648" y="-1027.4" font-family="Noto Sans SC" font-size="12.00">第一层：分子与细胞机制</text>
</g>
<g id="clust2" class="cluster">
<title>cluster_system</title>
<path fill="#eff6ff" stroke="#2563eb" stroke-dasharray="5,2" d="M1130,-112C1130,-112 1255,-112 1255,-112 1261,-112 1267,-118 1267,-124 1267,-124 1267,-917 1267,-917 1267,-923 1261,-929 1255,-929 1255,-929 1130,-929 1130,-929 1124,-929 1118,-923 1118,-917 1118,-917 1118,-124 1118,-124 1118,-118 1124,-112 1130,-112"/>
<text text-anchor="middle" x="1192.5" y="-915.4" font-family="Noto Sans SC" font-size="12.00">第二层：器官与系统功能</text>
</g>
<g id="clust3" class="cluster">
<title>cluster_clinical</title>
<path fill="#ecfdf5" stroke="#059669" stroke-dasharray="5,2" d="M75,-8C75,-8 322,-8 322,-8 328,-8 334,-14 334,-20 334,-20 334,-805 334,-805 334,-811 328,-817 322,-817 322,-817 75,-817 75,-817 69,-817 63,-811 63,-805 63,-805 63,-20 63,-20 63,-14 69,-8 75,-8"/>
<text text-anchor="middle" x="198.5" y="-803.4" font-family="Noto Sans SC" font-size="12.00">第三层：临床医学与治疗</text>
</g>
<g id="clust4" class="cluster">
<title>cluster_social</title>
<path fill="#f5f3ff" stroke="#7c3aed" stroke-dasharray="5,2" d="M787,-8C787,-8 1042,-8 1042,-8 1048,-8 1054,-14 1054,-20 1054,-20 1054,-693 1054,-693 1054,-699 1048,-705 1042,-705 1042,-705 787,-705 787,-705 781,-705 775,-699 775,-693 775,-693 775,-20 775,-20 775,-14 781,-8 787,-8"/>
<text text-anchor="middle" x="914.5" y="-691.4" font-family="Noto Sans SC" font-size="12.00">第四层：公共卫生与社会认知</text>
</g>
<!-- cancer -->
<g id="node1" class="node">
<title>cancer</title>
<polygon fill="#ef4444" stroke="black" points="759,-1012 681,-1012 681,-976 759,-976 759,-1012"/>
<text text-anchor="middle" x="720" y="-997" font-family="Noto Sans SC" font-size="10.00" fill="white">癌症机制</text>
<text text-anchor="middle" x="720" y="-986" font-family="Noto Sans SC" font-size="10.00" fill="white">(致癌物/突变)</text>
</g>
<!-- immune -->
<g id="node5" class="node">
<title>immune</title>
<polygon fill="#3b82f6" stroke="black" points="1222.5,-900 1125.5,-900 1125.5,-864 1222.5,-864 1222.5,-900"/>
<text text-anchor="middle" x="1174" y="-885" font-family="Noto Sans SC" font-size="10.00" fill="white">免疫系统</text>
<text text-anchor="middle" x="1174" y="-874" font-family="Noto Sans SC" font-size="10.00" fill="white">(先天/适应性免疫)</text>
</g>
<!-- cancer&#45;&gt;immune -->
<g id="edge1" class="edge">
<title>cancer&#45;&gt;immune</title>
<path fill="none" stroke="#dc2626" d="M759.22,-993.86C833.67,-994 998.98,-987.08 1122,-929 1133.02,-923.8 1143.44,-915.54 1152.02,-907.44"/>
<polygon fill="#dc2626" stroke="#dc2626" points="1154.73,-909.68 1159.35,-900.14 1149.79,-904.72 1154.73,-909.68"/>
<text text-anchor="middle" x="1120.5" y="-939.8" font-family="Noto Sans SC" font-size="9.00" fill="#dc2626">免疫监视</text>
</g>
<!-- drugs -->
<g id="node11" class="node">
<title>drugs</title>
<polygon fill="#047857" stroke="black" points="326,-468 238,-468 238,-432 326,-432 326,-468"/>
<text text-anchor="middle" x="282" y="-453" font-family="Noto Sans SC" font-size="10.00" fill="white">靶向药物</text>
<text text-anchor="middle" x="282" y="-442" font-family="Noto Sans SC" font-size="10.00" fill="white">(减肥药/抗癌药)</text>
</g>
<!-- cancer&#45;&gt;drugs -->
<g id="edge17" class="edge">
<title>cancer&#45;&gt;drugs</title>
<path fill="none" stroke="#b91c1b" d="M680.69,-982.34C672.85,-980.23 664.66,-978.03 657,-976 386.62,-904.23 264.57,-994.06 48,-817 10.45,-786.3 0,-767.5 0,-719 0,-719 0,-719 0,-553 0,-505.02 146.18,-473.26 228.04,-459.23"/>
<polygon fill="#b91c1b" stroke="#b91c1b" points="228.66,-462.68 237.94,-457.57 227.5,-455.77 228.66,-462.68"/>
<text text-anchor="middle" x="23" y="-715.8" font-family="Noto Sans SC" font-size="9.00" fill="#b91c1b">抗癌靶向药</text>
</g>
<!-- prion -->
<g id="node2" class="node">
<title>prion</title>
<polygon fill="#dc2626" stroke="black" points="736,-676 636,-676 636,-640 736,-640 736,-676"/>
<text text-anchor="middle" x="686" y="-661" font-family="Noto Sans SC" font-size="10.00" fill="white">朊病毒/朊粒</text>
<text text-anchor="middle" x="686" y="-650" font-family="Noto Sans SC" font-size="10.00" fill="white">(PrP蛋白错误折叠)</text>
</g>
<!-- nervous -->
<g id="node6" class="node">
<title>nervous</title>
<polygon fill="#2563eb" stroke="black" points="1222.5,-572 1125.5,-572 1125.5,-536 1222.5,-536 1222.5,-572"/>
<text text-anchor="middle" x="1174" y="-557" font-family="Noto Sans SC" font-size="10.00" fill="white">神经系统</text>
<text text-anchor="middle" x="1174" y="-546" font-family="Noto Sans SC" font-size="10.00" fill="white">(偏头痛/神经递质)</text>
</g>
<!-- prion&#45;&gt;nervous -->
<g id="edge2" class="edge">
<title>prion&#45;&gt;nervous</title>
<path fill="none" stroke="#dc2626" d="M736.33,-645.95C745.53,-643.95 755.05,-641.9 764,-640 889.13,-613.39 1035.96,-583.2 1115.53,-566.93"/>
<polygon fill="#dc2626" stroke="#dc2626" points="1116.27,-570.35 1125.37,-564.92 1114.87,-563.49 1116.27,-570.35"/>
<text text-anchor="middle" x="961.5" y="-603.8" font-family="Noto Sans SC" font-size="9.00" fill="#dc2626">神经退行</text>
</g>
<!-- ethics -->
<g id="node16" class="node">
<title>ethics</title>
<polygon fill="#5b21b6" stroke="black" points="879.5,-364 782.5,-364 782.5,-328 879.5,-328 879.5,-364"/>
<text text-anchor="middle" x="831" y="-349" font-family="Noto Sans SC" font-size="10.00" fill="white">医学伦理</text>
<text text-anchor="middle" x="831" y="-338" font-family="Noto Sans SC" font-size="10.00" fill="white">(海拉细胞/知情权)</text>
</g>
<!-- prion&#45;&gt;ethics -->
<g id="edge18" class="edge">
<title>prion&#45;&gt;ethics</title>
<path fill="none" stroke="#991b1b" d="M696.72,-639.78C701.87,-631.25 708,-620.71 713,-611 756.67,-526.2 800.51,-421.87 820.22,-373.69"/>
<polygon fill="#991b1b" stroke="#991b1b" points="823.52,-374.88 824.05,-364.3 817.03,-372.24 823.52,-374.88"/>
<text text-anchor="middle" x="793.5" y="-499.8" font-family="Noto Sans SC" font-size="9.00" fill="#991b1b">食品安全监管</text>
</g>
<!-- epigenetics -->
<g id="node3" class="node">
<title>epigenetics</title>
<polygon fill="#b91c1b" stroke="black" points="727.5,-260 642.5,-260 642.5,-224 727.5,-224 727.5,-260"/>
<text text-anchor="middle" x="685" y="-245" font-family="Noto Sans SC" font-size="10.00" fill="white">表观遗传</text>
<text text-anchor="middle" x="685" y="-234" font-family="Noto Sans SC" font-size="10.00" fill="white">(基因表达调控)</text>
</g>
<!-- aging -->
<g id="node7" class="node">
<title>aging</title>
<polygon fill="#1d4ed8" stroke="black" points="1246,-156 1126,-156 1126,-120 1246,-120 1246,-156"/>
<text text-anchor="middle" x="1186" y="-141" font-family="Noto Sans SC" font-size="10.00" fill="white">衰老过程</text>
<text text-anchor="middle" x="1186" y="-130" font-family="Noto Sans SC" font-size="10.00" fill="white">(端粒/线粒体/毒物兴奋)</text>
</g>
<!-- epigenetics&#45;&gt;aging -->
<g id="edge3" class="edge">
<title>epigenetics&#45;&gt;aging</title>
<path fill="none" stroke="#dc2626" d="M727.54,-239.43C838.31,-235.01 1129.52,-221 1164,-195 1173.23,-188.04 1178.59,-176.64 1181.7,-165.93"/>
<polygon fill="#dc2626" stroke="#dc2626" points="1185.14,-166.59 1184.05,-156.05 1178.33,-164.97 1185.14,-166.59"/>
<text text-anchor="middle" x="1190.5" y="-187.8" font-family="Noto Sans SC" font-size="9.00" fill="#dc2626">衰老时钟</text>
</g>
<!-- virus -->
<g id="node4" class="node">
<title>virus</title>
<polygon fill="#991b1b" stroke="black" points="633.5,-1012 536.5,-1012 536.5,-976 633.5,-976 633.5,-1012"/>
<text text-anchor="middle" x="585" y="-997" font-family="Noto Sans SC" font-size="10.00" fill="white">内源性逆转录病毒</text>
<text text-anchor="middle" x="585" y="-986" font-family="Noto Sans SC" font-size="10.00" fill="white">(HERV/衰老关联)</text>
</g>
<!-- virus&#45;&gt;immune -->
<g id="edge4" class="edge">
<title>virus&#45;&gt;immune</title>
<path fill="none" stroke="#dc2626" d="M633.52,-980.79C641.66,-979 650.04,-977.32 658,-976 862.47,-941.98 932.12,-1012.12 1122,-929 1133.27,-924.07 1143.82,-915.75 1152.44,-907.54"/>
<polygon fill="#dc2626" stroke="#dc2626" points="1154.93,-910 1159.48,-900.43 1149.95,-905.07 1154.93,-910"/>
<text text-anchor="middle" x="1117.5" y="-939.8" font-family="Noto Sans SC" font-size="9.00" fill="#dc2626">免疫激活</text>
</g>
<!-- virus&#45;&gt;aging -->
<g id="edge5" class="edge">
<title>virus&#45;&gt;aging</title>
<path fill="none" stroke="#dc2626" d="M583.29,-975.81C578.71,-923.52 569.35,-762.48 613,-640 712.64,-360.4 869.47,-367.54 1111,-195 1125.78,-184.44 1141.96,-172.42 1155.49,-162.24"/>
<polygon fill="#dc2626" stroke="#dc2626" points="1157.67,-164.98 1163.54,-156.16 1153.45,-159.39 1157.67,-164.98"/>
<text text-anchor="middle" x="677.5" y="-551.8" font-family="Noto Sans SC" font-size="9.00" fill="#dc2626">炎症老化</text>
</g>
<!-- vaccine -->
<g id="node9" class="node">
<title>vaccine</title>
<polygon fill="#10b981" stroke="black" points="326,-788 224,-788 224,-752 326,-752 326,-788"/>
<text text-anchor="middle" x="275" y="-773" font-family="Noto Sans SC" font-size="10.00" fill="white">疫苗技术</text>
<text text-anchor="middle" x="275" y="-762" font-family="Noto Sans SC" font-size="10.00" fill="white">(mRNA/灭活/减毒)</text>
</g>
<!-- immune&#45;&gt;vaccine -->
<g id="edge6" class="edge">
<title>immune&#45;&gt;vaccine</title>
<path fill="none" stroke="#2563eb" d="M1125.37,-864.76C1124.24,-864.5 1123.11,-864.24 1122,-864 1122,-864 530.55,-799.06 336.13,-777.71"/>
<polygon fill="#2563eb" stroke="#2563eb" points="336.4,-774.22 326.08,-776.61 335.63,-781.18 336.4,-774.22"/>
<text text-anchor="middle" x="866.5" y="-827.8" font-family="Noto Sans SC" font-size="9.00" fill="#2563eb">免疫记忆</text>
</g>
<!-- antibiotics -->
<g id="node10" class="node">
<title>antibiotics</title>
<polygon fill="#059669" stroke="black" points="177,-788 71,-788 71,-752 177,-752 177,-788"/>
<text text-anchor="middle" x="124" y="-773" font-family="Noto Sans SC" font-size="10.00" fill="white">抗生素耐药</text>
<text text-anchor="middle" x="124" y="-762" font-family="Noto Sans SC" font-size="10.00" fill="white">(超级细菌/ESKAPE)</text>
</g>
<!-- immune&#45;&gt;antibiotics -->
<g id="edge7" class="edge">
<title>immune&#45;&gt;antibiotics</title>
<path fill="none" stroke="#2563eb" d="M1125.34,-864.86C1124.22,-864.57 1123.11,-864.28 1122,-864 1025.68,-839.85 1000.87,-834.26 902,-825 863.22,-821.37 238.48,-827.57 201,-817 184.28,-812.28 167.51,-802.94 153.91,-793.9"/>
<polygon fill="#2563eb" stroke="#2563eb" points="155.67,-790.87 145.46,-788.06 151.69,-796.62 155.67,-790.87"/>
<text text-anchor="middle" x="1004.5" y="-827.8" font-family="Noto Sans SC" font-size="9.00" fill="#2563eb">协同防御</text>
</g>
<!-- nervous&#45;&gt;drugs -->
<g id="edge8" class="edge">
<title>nervous&#45;&gt;drugs</title>
<path fill="none" stroke="#2563eb" d="M1125.41,-547.44C971.82,-529.88 497.45,-475.64 336.25,-457.2"/>
<polygon fill="#2563eb" stroke="#2563eb" points="336.43,-453.7 326.1,-456.04 335.63,-460.66 336.43,-453.7"/>
<text text-anchor="middle" x="772.5" y="-499.8" font-family="Noto Sans SC" font-size="9.00" fill="#2563eb">靶点开发</text>
</g>
<!-- health_myth -->
<g id="node14" class="node">
<title>health_myth</title>
<polygon fill="#7c3aed" stroke="black" points="1046,-52 946,-52 946,-16 1046,-16 1046,-52"/>
<text text-anchor="middle" x="996" y="-37" font-family="Noto Sans SC" font-size="10.00" fill="white">健康误区批判</text>
<text text-anchor="middle" x="996" y="-26" font-family="Noto Sans SC" font-size="10.00" fill="white">(亚健康/排毒/晒背)</text>
</g>
<!-- nervous&#45;&gt;health_myth -->
<g id="edge19" class="edge">
<title>nervous&#45;&gt;health_myth</title>
<path fill="none" stroke="#1d4ed8" d="M1222.81,-540.11C1264.24,-525.87 1317,-498.42 1317,-451 1317,-451 1317,-451 1317,-137 1317,-109.17 1311.46,-97.43 1289,-81 1252.93,-54.62 1131.06,-42.86 1056.33,-38.03"/>
<polygon fill="#1d4ed8" stroke="#1d4ed8" points="1056.31,-34.52 1046.11,-37.39 1055.88,-41.51 1056.31,-34.52"/>
<text text-anchor="middle" x="1340" y="-291.8" font-family="Noto Sans SC" font-size="9.00" fill="#1d4ed8">偏头痛认知</text>
</g>
<!-- aging&#45;&gt;drugs -->
<g id="edge11" class="edge">
<title>aging&#45;&gt;drugs</title>
<path fill="none" stroke="#2563eb" d="M1155.82,-156.07C1130.56,-169.39 1093.11,-186.94 1058,-195 999.48,-208.43 569.61,-185.3 518,-216 452.23,-255.12 480.6,-306.59 430,-364 411.37,-385.14 404.02,-388.25 380,-403 365.28,-412.04 348.49,-420.52 333.02,-427.67"/>
<polygon fill="#2563eb" stroke="#2563eb" points="331.25,-424.63 323.59,-431.95 334.15,-431.01 331.25,-424.63"/>
<text text-anchor="middle" x="484.5" y="-291.8" font-family="Noto Sans SC" font-size="9.00" fill="#2563eb">抗衰老药</text>
</g>
<!-- cryonics -->
<g id="node12" class="node">
<title>cryonics</title>
<polygon fill="#065f46" stroke="black" points="326.5,-52 229.5,-52 229.5,-16 326.5,-16 326.5,-52"/>
<text text-anchor="middle" x="278" y="-37" font-family="Noto Sans SC" font-size="10.00" fill="white">冷冻复活技术</text>
<text text-anchor="middle" x="278" y="-26" font-family="Noto Sans SC" font-size="10.00" fill="white">(器官保存/玻璃化)</text>
</g>
<!-- aging&#45;&gt;cryonics -->
<g id="edge10" class="edge">
<title>aging&#45;&gt;cryonics</title>
<path fill="none" stroke="#2563eb" d="M1147.29,-119.88C1139.08,-116.81 1130.36,-113.97 1122,-112 833.44,-43.92 476.24,-35.31 337.23,-34.73"/>
<polygon fill="#2563eb" stroke="#2563eb" points="336.83,-31.23 326.82,-34.7 336.81,-38.23 336.83,-31.23"/>
<text text-anchor="middle" x="1027.5" y="-83.8" font-family="Noto Sans SC" font-size="9.00" fill="#2563eb">器官保存</text>
</g>
<!-- aging&#45;&gt;health_myth -->
<g id="edge21" class="edge">
<title>aging&#45;&gt;health_myth</title>
<path fill="none" stroke="#1d4ed8" d="M1154.2,-119.93C1122,-102.64 1072.08,-75.84 1036.95,-56.98"/>
<polygon fill="#1d4ed8" stroke="#1d4ed8" points="1038.37,-53.77 1027.91,-52.13 1035.06,-59.94 1038.37,-53.77"/>
<text text-anchor="middle" x="1119" y="-83.8" font-family="Noto Sans SC" font-size="9.00" fill="#1d4ed8">抗衰老骗局</text>
</g>
<!-- metabolism -->
<g id="node8" class="node">
<title>metabolism</title>
<polygon fill="#1e3a5f" stroke="black" points="1222.5,-788 1125.5,-788 1125.5,-752 1222.5,-752 1222.5,-788"/>
<text text-anchor="middle" x="1174" y="-773" font-family="Noto Sans SC" font-size="10.00" fill="white">代谢与营养</text>
<text text-anchor="middle" x="1174" y="-762" font-family="Noto Sans SC" font-size="10.00" fill="white">(GLP&#45;1/二甲双胍)</text>
</g>
<!-- metabolism&#45;&gt;drugs -->
<g id="edge9" class="edge">
<title>metabolism&#45;&gt;drugs</title>
<path fill="none" stroke="#2563eb" d="M1125.36,-752.82C1124.23,-752.54 1123.11,-752.26 1122,-752 1007.42,-724.95 976.94,-726.56 860,-713 817.47,-708.07 804.88,-717.72 764,-705 619.72,-660.1 603.48,-604.89 469,-536 423.21,-512.54 369.64,-488.53 331.6,-472.03"/>
<polygon fill="#2563eb" stroke="#2563eb" points="332.85,-468.76 322.28,-468.01 330.07,-475.19 332.85,-468.76"/>
<text text-anchor="middle" x="605.5" y="-603.8" font-family="Noto Sans SC" font-size="9.00" fill="#2563eb">药物靶点</text>
</g>
<!-- food_safety -->
<g id="node13" class="node">
<title>food_safety</title>
<polygon fill="#8b5cf6" stroke="black" points="1046,-676 958,-676 958,-640 1046,-640 1046,-676"/>
<text text-anchor="middle" x="1002" y="-661" font-family="Noto Sans SC" font-size="10.00" fill="white">食品安全认知</text>
<text text-anchor="middle" x="1002" y="-650" font-family="Noto Sans SC" font-size="10.00" fill="white">(致癌物/添加剂)</text>
</g>
<!-- metabolism&#45;&gt;food_safety -->
<g id="edge20" class="edge">
<title>metabolism&#45;&gt;food_safety</title>
<path fill="none" stroke="#1e3a5f" d="M1155.49,-751.94C1142.26,-740.22 1123.74,-724.72 1106,-713 1087.99,-701.1 1067.05,-689.79 1048.7,-680.63"/>
<polygon fill="#1e3a5f" stroke="#1e3a5f" points="1050.17,-677.45 1039.65,-676.17 1047.08,-683.73 1050.17,-677.45"/>
<text text-anchor="middle" x="1142" y="-715.8" font-family="Noto Sans SC" font-size="9.00" fill="#1e3a5f">代糖安全性</text>
</g>
<!-- med_system -->
<g id="node15" class="node">
<title>med_system</title>
<polygon fill="#6d28d9" stroke="black" points="910.5,-676 783.5,-676 783.5,-640 910.5,-640 910.5,-676"/>
<text text-anchor="middle" x="847" y="-661" font-family="Noto Sans SC" font-size="10.00" fill="white">医疗体系</text>
<text text-anchor="middle" x="847" y="-650" font-family="Noto Sans SC" font-size="10.00" fill="white">(韩国医生罢工/产科危机)</text>
</g>
<!-- vaccine&#45;&gt;med_system -->
<g id="edge12" class="edge">
<title>vaccine&#45;&gt;med_system</title>
<path fill="none" stroke="#059669" d="M326.01,-768.11C435.94,-765.58 691.62,-756.21 771,-723 791.81,-714.29 811.19,-697.78 825.18,-683.71"/>
<polygon fill="#059669" stroke="#059669" points="827.97,-685.85 832.36,-676.21 822.92,-681.01 827.97,-685.85"/>
<text text-anchor="middle" x="805.5" y="-715.8" font-family="Noto Sans SC" font-size="9.00" fill="#059669">接种政策</text>
</g>
<!-- antibiotics&#45;&gt;prion -->
<g id="edge26" class="edge">
<title>antibiotics&#45;&gt;prion</title>
<path fill="none" stroke="#059669" stroke-dasharray="5,2" d="M142.7,-751.92C158.71,-738.49 183.08,-720.8 208,-713 252.97,-698.92 587.94,-721.7 632,-705 643.94,-700.48 655.06,-692.08 664.07,-683.68"/>
<polygon fill="#059669" stroke="#059669" points="666.77,-685.93 671.41,-676.4 661.85,-680.96 666.77,-685.93"/>
<text text-anchor="middle" x="239" y="-715.8" font-family="Noto Sans SC" font-size="9.00" fill="#059669">饲料→朊粒传播</text>
</g>
<!-- antibiotics&#45;&gt;food_safety -->
<g id="edge13" class="edge">
<title>antibiotics&#45;&gt;food_safety</title>
<path fill="none" stroke="#059669" d="M177.25,-756.22C185.18,-754.61 193.28,-753.14 201,-752 427.21,-718.6 485.68,-725.48 714,-713 740.64,-711.54 929.41,-715.36 954,-705 964.91,-700.4 974.79,-692.1 982.7,-683.81"/>
<polygon fill="#059669" stroke="#059669" points="985.36,-686.09 989.4,-676.29 980.13,-681.43 985.36,-686.09"/>
<text text-anchor="middle" x="737" y="-715.8" font-family="Noto Sans SC" font-size="9.00" fill="#059669">饲料抗生素</text>
</g>
<!-- drugs&#45;&gt;health_myth -->
<g id="edge14" class="edge">
<title>drugs&#45;&gt;health_myth</title>
<path fill="none" stroke="#059669" d="M299.58,-431.97C308.1,-423.49 318.34,-412.94 327,-403 396.11,-323.72 386.52,-277.27 472,-216 619.06,-110.59 832.7,-62.39 935.84,-44.22"/>
<polygon fill="#059669" stroke="#059669" points="936.51,-47.65 945.77,-42.5 935.32,-40.76 936.51,-47.65"/>
<text text-anchor="middle" x="495" y="-239.8" font-family="Noto Sans SC" font-size="9.00" fill="#059669">减肥药滥用</text>
</g>
<!-- drugs&#45;&gt;ethics -->
<g id="edge15" class="edge">
<title>drugs&#45;&gt;ethics</title>
<path fill="none" stroke="#059669" d="M326.12,-434.15C366.09,-421.28 426.85,-403.17 481,-393 608.46,-369.06 646.82,-390.15 772.38,-365.29"/>
<polygon fill="#059669" stroke="#059669" points="773.27,-368.68 782.37,-363.25 771.87,-361.82 773.27,-368.68"/>
<text text-anchor="middle" x="499.5" y="-395.8" font-family="Noto Sans SC" font-size="9.00" fill="#059669">临床试验</text>
</g>
<!-- cryonics&#45;&gt;ethics -->
<g id="edge16" class="edge">
<title>cryonics&#45;&gt;ethics</title>
<path fill="none" stroke="#059669" d="M326.64,-35.6C403.59,-38.44 556.11,-51.95 668,-112 752.24,-157.21 802.31,-267.36 821.7,-318.32"/>
<polygon fill="#059669" stroke="#059669" points="818.51,-319.81 825.27,-327.97 825.08,-317.38 818.51,-319.81"/>
<text text-anchor="middle" x="773.5" y="-187.8" font-family="Noto Sans SC" font-size="9.00" fill="#059669">技术边界</text>
</g>
<!-- food_safety&#45;&gt;metabolism -->
<g id="edge25" class="edge">
<title>food_safety&#45;&gt;metabolism</title>
<path fill="none" stroke="#8b5cf6" stroke-dasharray="5,2" d="M1028.69,-676.07C1058.15,-694.91 1105.71,-725.33 1138.34,-746.2"/>
<polygon fill="#8b5cf6" stroke="#8b5cf6" points="1136.81,-749.37 1147.12,-751.81 1140.59,-743.48 1136.81,-749.37"/>
<text text-anchor="middle" x="1125.5" y="-715.8" font-family="Noto Sans SC" font-size="9.00" fill="#8b5cf6">消费引导研究</text>
</g>
<!-- health_myth&#45;&gt;cancer -->
<g id="edge22" class="edge">
<title>health_myth&#45;&gt;cancer</title>
<path fill="none" stroke="#7c3aed" stroke-dasharray="5,2" d="M1046.18,-36.79C1156.82,-42.11 1412,-62.45 1412,-137 1412,-883 1412,-883 1412,-883 1412,-914.05 1409.38,-929.12 1384,-947 1334.18,-982.1 915.52,-990.59 769.78,-992.49"/>
<polygon fill="#7c3aed" stroke="#7c3aed" points="769.32,-988.99 759.36,-992.62 769.4,-995.99 769.32,-988.99"/>
<text text-anchor="middle" x="1439.5" y="-499.8" font-family="Noto Sans SC" font-size="9.00" fill="#7c3aed">行为致癌风险</text>
</g>
<!-- med_system&#45;&gt;vaccine -->
<g id="edge23" class="edge">
<title>med_system&#45;&gt;vaccine</title>
<path fill="none" stroke="#6d28d9" stroke-dasharray="5,2" d="M827.61,-676.03C814.94,-686.17 797.54,-698.32 780,-705 774.84,-706.97 469.4,-744.94 336.1,-761.44"/>
<polygon fill="#6d28d9" stroke="#6d28d9" points="335.54,-757.99 326.05,-762.69 336.4,-764.93 335.54,-757.99"/>
<text text-anchor="middle" x="732.5" y="-715.8" font-family="Noto Sans SC" font-size="9.00" fill="#6d28d9">需求反馈</text>
</g>
<!-- ethics&#45;&gt;epigenetics -->
<g id="edge24" class="edge">
<title>ethics&#45;&gt;epigenetics</title>
<path fill="none" stroke="#5b21b6" stroke-dasharray="5,2" d="M806.56,-327.93C782.24,-310.94 744.77,-284.75 717.85,-265.95"/>
<polygon fill="#5b21b6" stroke="#5b21b6" points="719.72,-262.99 709.52,-260.13 715.71,-268.72 719.72,-262.99"/>
<text text-anchor="middle" x="780.5" y="-291.8" font-family="Noto Sans SC" font-size="9.00" fill="#5b21b6">基因伦理</text>
</g>
</g>
</svg>
